<svg width="21" height="26" viewBox="0 0 21 26" fill="none" xmlns="http://www.w3.org/2000/svg">
<path d="M17.8976 9.77411C17.7562 9.52768 17.4894 9.37499 17.1999 9.37499H11.6695L12.3973 0.8463C12.4277 0.48927 12.2055 0.157825 11.8582 0.0422493C11.5125 -0.0741079 11.1278 0.0560188 10.9285 0.356995L2.12858 13.6381C1.96918 13.8784 1.95708 14.1846 2.09733 14.436C2.23758 14.6874 2.50708 14.8437 2.80003 14.8437H8.33594L7.60234 24.1588C7.57384 24.5189 7.80194 24.8512 8.15389 24.9622C8.23514 24.9877 8.31794 25 8.39999 25C8.67265 25 8.93435 24.8631 9.0828 24.6262L17.8827 10.5638C18.0335 10.3227 18.0394 10.0205 17.8976 9.77411ZM9.45275 21.038L9.99765 14.1225C10.0148 13.9054 9.9383 13.6914 9.7871 13.5315C9.63555 13.3721 9.42265 13.2812 9.2 13.2812H4.27074L10.5375 3.8229L10.0027 10.0915C9.9844 10.3094 10.0598 10.5244 10.2113 10.6854C10.3629 10.846 10.5761 10.9375 10.8 10.9375H15.7734L9.45275 21.038Z" fill="#FA5F1C"/>
</svg>
