<svg width="21" height="26" viewBox="0 0 21 26" fill="none" xmlns="http://www.w3.org/2000/svg">
<path d="M19.3144 4.2702L10.6071 0.538497C10.4538 0.472866 10.2887 0.439026 10.1219 0.439026C9.95518 0.439026 9.79014 0.472866 9.63682 0.538497L0.929509 4.2702C0.704676 4.36543 0.51284 4.52472 0.377911 4.72822C0.242982 4.93172 0.170928 5.17043 0.170729 5.41459V7.97081C0.167132 11.0759 0.892858 14.1385 2.28945 16.9118C3.68604 19.6851 5.71446 22.0916 8.21131 23.9375C8.29839 24.0022 8.38919 24.0619 8.47751 24.1279C9.00865 24.5085 9.55348 24.8742 10.1219 25.1989C10.6904 24.8717 11.2352 24.5085 11.7664 24.1279C11.8547 24.0644 11.9443 24.0035 12.0326 23.9375C14.5294 22.0916 16.5579 19.6851 17.9544 16.9118C19.351 14.1385 20.0768 11.0759 20.0732 7.97081V5.41459C20.073 5.17043 20.0009 4.93172 19.866 4.72822C19.7311 4.52472 19.5392 4.36543 19.3144 4.2702ZM18.2073 7.97081C18.2026 10.5069 17.6643 13.0136 16.6275 15.3281C15.5907 17.6426 14.0786 19.7131 12.1893 21.405C11.9754 21.599 11.7539 21.7781 11.53 21.966C11.3994 22.0717 11.2701 22.1799 11.1357 22.2832C10.8073 22.5319 10.4727 22.7807 10.1207 23.0096C9.76868 22.7795 9.43407 22.5344 9.10568 22.2832C8.97134 22.1799 8.84322 22.0717 8.71136 21.966C8.48746 21.7831 8.26605 21.5928 8.05209 21.405C6.16329 19.7128 4.65159 17.6423 3.61522 15.3278C2.57885 13.0133 2.04099 10.5067 2.03658 7.97081V5.82508L10.1219 2.35459L18.2073 5.82508V7.97081Z" fill="#1A55AF"/>
<path d="M5.20858 7.29909C5.0978 7.3483 5.00363 7.4285 4.93741 7.53003C4.8712 7.63156 4.83577 7.75008 4.83541 7.87129V9.15251C4.83045 10.8396 5.18639 12.5083 5.87936 14.0466C6.57233 15.5849 7.5863 16.9571 8.85321 18.0713L8.99004 18.1708C9.25411 18.3634 9.52814 18.5419 9.81102 18.7057V5.38348C9.72598 5.38679 9.64201 5.40359 9.56224 5.43324L5.20858 7.29909Z" fill="#1A55AF"/>
</svg>
