<svg width="14" height="20" viewBox="0 0 14 20" fill="none" xmlns="http://www.w3.org/2000/svg">
<path d="M12.8803 10.5609C12.4561 10.0123 11.816 9.63555 10.96 9.43077C12.05 8.87473 12.5291 7.931 12.3976 6.59943C12.3536 6.11658 12.2202 5.6981 11.9969 5.34338C11.7735 4.98859 11.4721 4.70337 11.0914 4.48759C10.7111 4.27155 10.2974 4.10709 9.85139 3.99371C9.40524 3.88033 8.89302 3.798 8.31507 3.74684V0.981537H6.62533V3.67001C6.33273 3.67001 5.8865 3.67731 5.28668 3.69196V0.981537L3.59671 0.981537V3.74684C3.35522 3.75418 3.00047 3.75791 2.5323 3.75791L0.205994 3.74684L0.205994 5.54651H1.42395C1.97995 5.54651 2.30549 5.7953 2.40058 6.29268V9.44211C2.47384 9.44211 2.5323 9.44587 2.57623 9.45317H2.40058V13.8643C2.34212 14.2373 2.13 14.424 1.76418 14.424H0.546295L0.20607 16.4322H2.40077C2.53979 16.4322 2.74084 16.434 3.00431 16.4373C3.26763 16.441 3.46507 16.4428 3.59679 16.4428L3.59679 19.241H5.28703V16.4757C5.5942 16.4832 6.04043 16.4868 6.62568 16.4868V19.241H8.31546V16.4428C8.91546 16.4136 9.44763 16.3591 9.91196 16.2783C10.3765 16.1976 10.8211 16.0716 11.2453 15.8995C11.6694 15.7277 12.0242 15.5136 12.3094 15.2576C12.5949 15.0017 12.8306 14.676 13.0175 14.2809C13.2037 13.8858 13.3227 13.4286 13.3738 12.9091C13.4693 11.8925 13.3046 11.1096 12.8803 10.5609ZM5.31955 5.66689C5.37078 5.66689 5.51526 5.66504 5.75301 5.66135C5.99089 5.65759 6.18833 5.65397 6.3456 5.65028C6.50291 5.64667 6.71507 5.65582 6.9822 5.67777C7.2492 5.69971 7.47412 5.72904 7.65696 5.76555C7.83979 5.80206 8.04115 5.86244 8.26042 5.94658C8.48007 6.03064 8.65553 6.1331 8.78705 6.25379C8.91885 6.37447 9.03038 6.52817 9.12167 6.71474C9.21322 6.90126 9.25896 7.11523 9.25896 7.3566C9.25896 7.56145 9.22609 7.74805 9.16033 7.9164C9.09469 8.08463 8.99568 8.22549 8.86415 8.33887C8.73259 8.45229 8.59699 8.55115 8.45797 8.63521C8.31911 8.71926 8.14154 8.78698 7.92581 8.83814C7.71011 8.88937 7.52174 8.92962 7.36089 8.95883C7.19993 8.98811 6.9988 9.00829 6.75735 9.01921C6.51587 9.03012 6.33292 9.03758 6.20862 9.04119C6.08421 9.04481 5.91417 9.04481 5.69828 9.04119C5.48236 9.03758 5.35633 9.03566 5.31966 9.03566V5.66685H5.31955V5.66689ZM9.93402 13.1396C9.86434 13.308 9.77486 13.4544 9.66521 13.5788C9.55536 13.703 9.41081 13.8128 9.23167 13.9078C9.05256 14.003 8.87864 14.0797 8.71053 14.1383C8.54219 14.197 8.3391 14.2479 8.10157 14.292C7.8635 14.3359 7.65515 14.3668 7.47574 14.3852C7.29659 14.4036 7.0827 14.4181 6.83388 14.4292C6.58524 14.44 6.39126 14.4455 6.25232 14.4455C6.1133 14.4455 5.93769 14.4435 5.72553 14.44C5.51326 14.4365 5.37804 14.4347 5.31947 14.4347V10.7256C5.37793 10.7256 5.55169 10.722 5.84072 10.7145C6.12979 10.7071 6.36559 10.7037 6.5485 10.7037C6.73137 10.7037 6.98385 10.7145 7.30585 10.7366C7.62755 10.7584 7.89825 10.7912 8.1179 10.8351C8.33729 10.8791 8.5767 10.9466 8.8366 11.0382C9.09622 11.1296 9.30665 11.2411 9.46766 11.3728C9.62862 11.5047 9.76387 11.6727 9.87356 11.8776C9.98353 12.0824 10.0384 12.3165 10.0384 12.58C10.0383 12.785 10.0036 12.9713 9.93402 13.1396Z" fill="#FD8A75"/>
</svg>
