<svg width="16" height="19" viewBox="0 0 16 19" fill="none" xmlns="http://www.w3.org/2000/svg">
<path d="M0.61911 18.3797V0.682007H6.05481C9.17297 0.682007 11.4652 1.47419 12.9316 3.05855C14.4148 4.64291 15.1565 6.81719 15.1565 9.58139C15.1565 12.295 14.4148 14.444 12.9316 16.0284C11.4652 17.5959 9.17297 18.3797 6.05481 18.3797H0.61911ZM2.74283 16.6099H6.00425C7.72345 16.6099 9.0887 16.3318 10.1 15.7756C11.1281 15.2025 11.8613 14.3935 12.2996 13.3485C12.7378 12.2866 12.9569 11.0309 12.9569 9.58139C12.9569 8.09816 12.7378 6.82562 12.2996 5.76376C11.8613 4.7019 11.1281 3.88444 10.1 3.31137C9.0887 2.7383 7.72345 2.45177 6.00425 2.45177H2.74283V16.6099Z" fill="#EAC52D"/>
</svg>
