<svg width="18" height="19" viewBox="0 0 18 19" fill="none" xmlns="http://www.w3.org/2000/svg">
<path fill-rule="evenodd" clip-rule="evenodd" d="M13.5435 7.7587C15.6767 7.7587 17.4061 6.02936 17.4061 3.89612C17.4061 1.76287 15.6767 0.0335388 13.5435 0.0335388C11.4102 0.0335388 9.68089 1.76287 9.68089 3.89612C9.68089 4.87395 10.0442 5.76692 10.6433 6.44738C10.6997 7.06534 10.6325 7.59179 10.1788 7.8656C9.49114 8.28055 8.56598 8.14148 7.78909 7.86374C7.21317 6.45442 5.82859 5.4614 4.21207 5.4614C2.07882 5.4614 0.349487 7.19073 0.349487 9.32398C0.349487 11.4572 2.07882 13.1866 4.21207 13.1866C5.93291 13.1866 7.39091 12.0612 7.89033 10.5063C9.56436 10.2117 10.3592 11.0893 10.6817 12.232C10.0598 12.9176 9.68089 13.8276 9.68089 14.8262C9.68089 16.9594 11.4102 18.6887 13.5435 18.6887C15.6767 18.6887 17.4061 16.9594 17.4061 14.8262C17.4061 12.6929 15.6767 10.9636 13.5435 10.9636C13.2331 10.9636 12.9312 11.0002 12.642 11.0693C12.5124 10.9149 12.3769 10.7482 12.2357 10.5682C11.3663 9.46087 11.8673 8.43861 12.6651 7.65839C12.9473 7.72401 13.2413 7.7587 13.5435 7.7587Z" fill="#43B8D5"/>
</svg>
